<svg 
  className="sidebar-icon" 
  width="24" 
  height="24" 
  viewBox="0 0 24 24" 
  fill="none" 
  xmlns="http://www.w3.org/2000/svg"
>
  <defs>
    {/* Clips everything below the boundary between the Top and Middle layers */}
    <clipPath id="clip-mid-bot">
      <polygon points="0,6.38 12,12.75 24,6.38 24,25 0,25" />
    </clipPath>
    {/* Clips everything below the boundary between the Middle and Bottom layers */}
    <clipPath id="clip-bot">
      <polygon points="0,10.64 12,17.02 24,10.64 24,25 0,25" />
    </clipPath>
  </defs>

  {/* Top Layer (Base layer, colored entirely in light blue) */}
  <path 
    d="M11.166 3.0918C11.6921 2.83619 12.3079 2.83619 12.834 3.0918L20.707 6.91699C20.943 7.03166 21.0946 7.26853 21.0996 7.53027C21.1044 7.79216 20.9611 8.0349 20.7295 8.1582L17.7373 9.74902L20.707 11.1924C20.9431 11.3071 21.0946 11.5439 21.0996 11.8057C21.1044 12.0675 20.9612 12.3103 20.7295 12.4336L17.7373 14.0244L20.707 15.4678C20.943 15.5825 21.0948 15.8192 21.0996 16.0811C21.1045 16.343 20.9613 16.5857 20.7295 16.709L12.8955 20.877C12.3361 21.1746 11.6639 21.1745 11.1045 20.877L3.27051 16.709C3.03876 16.5857 2.89555 16.3429 2.90039 16.0811C2.90528 15.8192 3.05691 15.5825 3.29297 15.4678L6.26172 14.0244L3.27051 12.4336C3.03874 12.3103 2.89555 12.0675 2.90039 11.8057C2.90529 11.5439 3.05696 11.3071 3.29297 11.1924L6.26172 9.74902L3.27051 8.1582C3.03878 8.03491 2.89555 7.79219 2.90039 7.53027C2.90538 7.26851 3.05699 7.03165 3.29297 6.91699L11.166 3.0918ZM12.8955 16.6016C12.3359 16.8991 11.6641 16.8991 11.1045 16.6016L7.78516 14.835L5.13672 16.1221L11.7637 19.6475C11.9111 19.7259 12.0889 19.7259 12.2363 19.6475L18.8623 16.1221L16.2139 14.835L12.8955 16.6016ZM12.8955 12.3262C12.3359 12.6237 11.6641 12.6237 11.1045 12.3262L7.78516 10.5596L5.13672 11.8467L11.7637 15.3721C11.9111 15.4505 12.0889 15.4505 12.2363 15.3721L18.8623 11.8467L16.2139 10.5596L12.8955 12.3262ZM12.2197 4.34473C12.0813 4.27741 11.9187 4.27741 11.7803 4.34473L5.13672 7.57129L11.7637 11.0967C11.9111 11.1751 12.0889 11.1751 12.2363 11.0967L18.8623 7.57129L12.2197 4.34473Z" 
    fill="#AECBFA" 
    stroke="#AECBFA" 
    strokeWidth="0.2"
  />

  {/* Middle Layer (Medium blue, drawn over the base layer) */}
  <path 
    clipPath="url(#clip-mid-bot)"
    d="M11.166 3.0918C11.6921 2.83619 12.3079 2.83619 12.834 3.0918L20.707 6.91699C20.943 7.03166 21.0946 7.26853 21.0996 7.53027C21.1044 7.79216 20.9611 8.0349 20.7295 8.1582L17.7373 9.74902L20.707 11.1924C20.9431 11.3071 21.0946 11.5439 21.0996 11.8057C21.1044 12.0675 20.9612 12.3103 20.7295 12.4336L17.7373 14.0244L20.707 15.4678C20.943 15.5825 21.0948 15.8192 21.0996 16.0811C21.1045 16.343 20.9613 16.5857 20.7295 16.709L12.8955 20.877C12.3361 21.1746 11.6639 21.1745 11.1045 20.877L3.27051 16.709C3.03876 16.5857 2.89555 16.3429 2.90039 16.0811C2.90528 15.8192 3.05691 15.5825 3.29297 15.4678L6.26172 14.0244L3.27051 12.4336C3.03874 12.3103 2.89555 12.0675 2.90039 11.8057C2.90529 11.5439 3.05696 11.3071 3.29297 11.1924L6.26172 9.74902L3.27051 8.1582C3.03878 8.03491 2.89555 7.79219 2.90039 7.53027C2.90538 7.26851 3.05699 7.03165 3.29297 6.91699L11.166 3.0918ZM12.8955 16.6016C12.3359 16.8991 11.6641 16.8991 11.1045 16.6016L7.78516 14.835L5.13672 16.1221L11.7637 19.6475C11.9111 19.7259 12.0889 19.7259 12.2363 19.6475L18.8623 16.1221L16.2139 14.835L12.8955 16.6016ZM12.8955 12.3262C12.3359 12.6237 11.6641 12.6237 11.1045 12.3262L7.78516 10.5596L5.13672 11.8467L11.7637 15.3721C11.9111 15.4505 12.0889 15.4505 12.2363 15.3721L18.8623 11.8467L16.2139 10.5596L12.8955 12.3262ZM12.2197 4.34473C12.0813 4.27741 11.9187 4.27741 11.7803 4.34473L5.13672 7.57129L11.7637 11.0967C11.9111 11.1751 12.0889 11.1751 12.2363 11.0967L18.8623 7.57129L12.2197 4.34473Z" 
    fill="#669DF6" 
    stroke="#669DF6" 
    strokeWidth="0.2"
  />

  {/* Bottom Layer (Dark blue, drawn over the middle layer) */}
  <path 
    clipPath="url(#clip-bot)"
    d="M11.166 3.0918C11.6921 2.83619 12.3079 2.83619 12.834 3.0918L20.707 6.91699C20.943 7.03166 21.0946 7.26853 21.0996 7.53027C21.1044 7.79216 20.9611 8.0349 20.7295 8.1582L17.7373 9.74902L20.707 11.1924C20.9431 11.3071 21.0946 11.5439 21.0996 11.8057C21.1044 12.0675 20.9612 12.3103 20.7295 12.4336L17.7373 14.0244L20.707 15.4678C20.943 15.5825 21.0948 15.8192 21.0996 16.0811C21.1045 16.343 20.9613 16.5857 20.7295 16.709L12.8955 20.877C12.3361 21.1746 11.6639 21.1745 11.1045 20.877L3.27051 16.709C3.03876 16.5857 2.89555 16.3429 2.90039 16.0811C2.90528 15.8192 3.05691 15.5825 3.29297 15.4678L6.26172 14.0244L3.27051 12.4336C3.03874 12.3103 2.89555 12.0675 2.90039 11.8057C2.90529 11.5439 3.05696 11.3071 3.29297 11.1924L6.26172 9.74902L3.27051 8.1582C3.03878 8.03491 2.89555 7.79219 2.90039 7.53027C2.90538 7.26851 3.05699 7.03165 3.29297 6.91699L11.166 3.0918ZM12.8955 16.6016C12.3359 16.8991 11.6641 16.8991 11.1045 16.6016L7.78516 14.835L5.13672 16.1221L11.7637 19.6475C11.9111 19.7259 12.0889 19.7259 12.2363 19.6475L18.8623 16.1221L16.2139 14.835L12.8955 16.6016ZM12.8955 12.3262C12.3359 12.6237 11.6641 12.6237 11.1045 12.3262L7.78516 10.5596L5.13672 11.8467L11.7637 15.3721C11.9111 15.4505 12.0889 15.4505 12.2363 15.3721L18.8623 11.8467L16.2139 10.5596L12.8955 12.3262ZM12.2197 4.34473C12.0813 4.27741 11.9187 4.27741 11.7803 4.34473L5.13672 7.57129L11.7637 11.0967C11.9111 11.1751 12.0889 11.1751 12.2363 11.0967L18.8623 7.57129L12.2197 4.34473Z" 
    fill="#4285F4" 
    stroke="#4285F4" 
    strokeWidth="0.2"
  />
</svg>