<svg width="198" height="49" viewBox="0 0 198 49" fill="none" xmlns="http://www.w3.org/2000/svg">
<rect x="2.13525" y="2.66919" width="42.7072" height="42.7072" rx="9.60912" fill="white"/>
<path d="M40.2605 34.6887C40.1892 34.701 40.107 34.7296 40.0453 34.7664C39.8295 34.8952 39.5685 35.0602 39.346 35.1913C38.3225 35.7957 37.3048 36.3967 36.2809 36.9976C34.2375 38.1967 32.215 39.3808 30.1984 40.5726C29.2403 41.139 28.339 41.6524 27.3908 42.2074C26.1616 42.9271 24.9389 43.7154 23.6733 44.3517C23.652 44.3626 23.652 44.4356 23.5729 44.4564C23.3305 44.5198 23.3481 44.3848 23.2827 44.3517C22.4001 43.9068 21.57 43.3988 20.7208 42.9032C19.2033 42.017 17.7102 41.114 16.1627 40.2029C15.7586 39.9649 15.3586 39.7943 14.9935 39.5101C14.9976 39.4093 15.1338 39.3009 15.1619 39.2479C15.5093 38.5876 15.8962 37.8988 16.3085 37.2802C16.358 37.2062 16.4965 36.8697 16.5601 36.8702C16.6459 36.9391 16.7508 36.9754 16.8457 37.0289C18.3088 37.852 19.7342 38.8433 21.1813 39.7C21.2975 39.7688 21.7543 40.0742 21.7543 39.92V31.1104C22.3137 31.2482 22.8987 31.3215 23.5008 31.3215C23.6903 31.3215 23.8783 31.3142 24.0642 31.3C24.2476 31.2881 24.4368 31.2699 24.6358 31.2457C24.6876 31.2395 24.738 31.2244 24.7889 31.2076C24.9011 31.1876 25.0123 31.1651 25.1225 31.1399C25.1483 31.142 25.1746 31.1463 25.2017 31.1537V39.9875L35.0427 33.9855L28.4361 29.4661C28.4247 29.4471 28.4185 29.4278 28.4164 29.4083C28.6709 29.1747 28.9087 28.9231 29.1277 28.6555C29.1929 28.5939 29.2442 28.5429 29.2693 28.5116C29.4648 28.2683 29.6448 27.9774 29.8039 27.6764C29.9568 27.4106 30.0934 27.1341 30.2123 26.8486C30.2332 26.8218 30.2532 26.7867 30.2568 26.7391C30.2676 26.7119 30.2783 26.6847 30.2887 26.6573L36.8131 30.9265V21.7757H40.2605V34.6887Z" fill="url(#paint0_linear_11215_123663)"/>
<path fill-rule="evenodd" clip-rule="evenodd" d="M16.722 26.6816C17.142 27.7662 17.8154 28.7248 18.6697 29.485C18.6374 29.5019 18.6243 29.5417 18.5857 29.5646C17.6203 30.1419 16.6845 30.8404 15.7055 31.5007C14.8722 32.063 13.9304 32.6054 13.1508 33.1614C13.117 33.1854 12.9589 33.3138 12.8726 33.3876C12.9042 33.5938 12.9206 33.8049 12.9206 34.0198C12.9206 36.3116 11.0604 38.1695 8.7657 38.1695C6.47104 38.1695 4.61084 36.3116 4.61084 34.0198C4.61084 31.7281 6.47104 29.8703 8.7657 29.8703C9.59422 29.8703 10.3661 30.1125 11.0142 30.5299C11.1586 30.385 11.382 30.2776 11.5587 30.1578C13.1408 29.0821 14.6892 27.9824 16.2948 26.9715C16.4359 26.8828 16.5648 26.7558 16.722 26.6816ZM8.7657 32.4552C7.9005 32.4552 7.19912 33.1558 7.19912 34.0198C7.19912 34.8839 7.9005 35.5845 8.7657 35.5845C9.6309 35.5845 10.3323 34.8839 10.3323 34.0198C10.3323 33.1558 9.6309 32.4552 8.7657 32.4552Z" fill="url(#paint1_linear_11215_123663)"/>
<path d="M22.3292 20.1472C22.6611 20.075 24.1128 19.9286 24.4184 20.0705C24.5592 20.1357 24.5432 20.1081 24.6777 20.1484C25.7461 20.4705 26.8133 21.3295 27.2582 22.4419C27.5657 23.2101 27.7055 24.0586 27.513 24.9692C27.2831 26.055 26.3261 27.3293 25.2166 27.7728C24.3712 28.1106 23.4158 28.2554 22.4205 28.0286C22.3868 28.0209 22.3932 27.947 22.3586 27.9393C21.4206 27.7333 20.4865 26.9927 19.9797 26.074C19.5039 25.2109 19.304 24.211 19.5338 23.1612C19.7818 22.0288 20.7903 20.6464 21.9936 20.3263C22.0145 20.3208 22.3083 20.1517 22.3292 20.1472Z" fill="url(#paint2_linear_11215_123663)"/>
<path d="M23.3839 3.71975C23.6265 3.65626 23.6089 3.79137 23.6741 3.82449C25.1273 4.5569 26.5258 5.48343 27.9407 6.31288C28.2218 6.47797 28.6918 6.67074 28.9529 6.84261C29.9269 7.48432 31.0898 8.1079 32.086 8.72829C32.171 8.78135 32.274 8.83394 32.3685 8.86705L30.6679 11.54L25.2021 8.18679V17.0094C25.1068 16.9866 25.0109 16.9657 24.9142 16.9467C24.8961 16.9401 24.8782 16.9349 24.8598 16.9322C24.8302 16.928 24.8006 16.9239 24.771 16.9199C24.3585 16.8472 23.934 16.8093 23.5008 16.8093C22.899 16.8093 22.3144 16.8824 21.7553 17.0201V8.25482C21.7553 8.02353 21.3574 8.43077 21.3329 8.44529C18.3991 10.2131 15.3694 12.0003 12.5328 13.8348C12.4383 13.8425 11.9715 14.0919 11.9575 14.15C11.9343 14.2352 12.002 14.2697 12.0519 14.3132C12.1827 14.4279 12.447 14.5586 12.6027 14.6655C14.5657 16.0157 16.4188 17.2778 18.386 18.6052C18.4543 18.6513 18.5662 18.6645 18.6066 18.7027C17.7574 19.476 17.0928 20.4478 16.6859 21.5445L10.1425 17.2025V26.4893H6.65014V13.4874C6.8086 13.5041 6.90989 13.3663 7.00707 13.311C8.82702 12.2733 10.6034 11.2457 12.422 10.1781C14.1089 9.18814 15.9066 8.1079 17.6348 7.09567C19.4562 6.02902 21.3969 4.77322 23.2836 3.82449C23.305 3.81361 23.305 3.74062 23.3839 3.71975Z" fill="url(#paint3_linear_11215_123663)"/>
<path fill-rule="evenodd" clip-rule="evenodd" d="M38.5081 10.052C40.8028 10.052 42.663 11.9099 42.663 14.2016C42.663 16.4933 40.8028 18.3512 38.5081 18.3512C37.6621 18.3512 36.8751 18.0986 36.2186 17.6649C36.1607 17.7379 36.069 17.7382 35.9852 17.7916C34.3042 18.8673 32.6445 20.0668 30.934 21.2047C30.771 21.3131 30.5966 21.4323 30.4505 21.5652C30.3892 21.5683 30.347 21.563 30.318 21.5513C30.2943 21.4872 30.2697 21.4235 30.2442 21.3603C30.2422 21.3444 30.2395 21.3283 30.2351 21.3121C30.2336 21.3061 30.2151 21.2758 30.1931 21.2366C29.9166 20.585 29.5477 19.9821 29.1025 19.4445C29.0562 19.3872 29.0099 19.3312 28.9634 19.2763C28.9536 19.2649 28.9369 19.2481 28.9156 19.2277C28.7854 19.0823 28.6492 18.942 28.5076 18.8076C28.4738 18.6314 28.7109 18.6352 28.7707 18.592C30.4754 17.3522 32.3286 16.1826 34.0749 15.0103C34.1858 14.936 34.2775 14.8316 34.3902 14.7563C34.3658 14.5749 34.3532 14.3897 34.3532 14.2016C34.3532 11.9099 36.2134 10.0521 38.5081 10.052ZM38.5081 12.637C37.6429 12.6371 36.9415 13.3375 36.9415 14.2016C36.9415 15.0657 37.6429 15.7662 38.5081 15.7662C39.3733 15.7662 40.0747 15.0658 40.0747 14.2016C40.0747 13.3375 39.3733 12.637 38.5081 12.637Z" fill="url(#paint4_linear_11215_123663)"/>
<path d="M155.097 16.691C154.637 17.5037 154.014 18.1606 153.228 18.6618C152.456 19.1629 151.508 19.4135 150.384 19.4135C149.625 19.4135 148.921 19.2848 148.271 19.0275C147.634 18.7566 147.079 18.3841 146.605 17.91C146.131 17.436 145.758 16.8807 145.488 16.2441C145.23 15.5939 145.102 14.8828 145.102 14.1108C145.102 13.3929 145.23 12.7157 145.488 12.0791C145.745 11.429 146.104 10.8669 146.564 10.3928C147.025 9.90521 147.567 9.51919 148.19 9.23476C148.826 8.95032 149.524 8.80811 150.282 8.80811C151.081 8.80811 151.793 8.94355 152.416 9.21444C153.039 9.47179 153.56 9.83749 153.98 10.3116C154.4 10.7721 154.718 11.3206 154.935 11.9572C155.152 12.5938 155.26 13.2846 155.26 14.0295C155.26 14.1243 155.26 14.2056 155.26 14.2733C155.246 14.3546 155.24 14.4291 155.24 14.4968C155.226 14.5645 155.219 14.639 155.219 14.7203H147.722C147.777 15.1266 147.885 15.4788 148.047 15.7768C148.224 16.0612 148.434 16.305 148.677 16.5082C148.935 16.6978 149.212 16.84 149.51 16.9348C149.808 17.0161 150.113 17.0567 150.425 17.0567C151.034 17.0567 151.535 16.9213 151.928 16.6504C152.334 16.366 152.653 16.0138 152.883 15.5939L155.097 16.691ZM152.68 12.8308C152.666 12.6548 152.605 12.4584 152.497 12.2416C152.402 12.0249 152.253 11.8218 152.05 11.6321C151.86 11.4425 151.616 11.2868 151.319 11.1649C151.034 11.043 150.689 10.982 150.282 10.982C149.713 10.982 149.212 11.1445 148.779 11.4696C148.345 11.7947 148.041 12.2484 147.865 12.8308H152.68Z" fill="#0C1226"/>
<path d="M138.239 23.8019C137.534 23.8019 136.904 23.7071 136.349 23.5175C135.807 23.3414 135.333 23.1044 134.927 22.8064C134.521 22.522 134.182 22.2037 133.911 21.8515C133.64 21.4993 133.444 21.1472 133.322 20.795L135.862 19.7792C136.051 20.3074 136.363 20.7138 136.796 20.9982C137.23 21.2962 137.71 21.4452 138.239 21.4452C139.078 21.4452 139.742 21.181 140.23 20.6528C140.717 20.1381 140.961 19.4135 140.961 18.4789V17.7881H140.799C140.487 18.2216 140.074 18.567 139.559 18.8243C139.058 19.0681 138.462 19.19 137.771 19.19C137.175 19.19 136.593 19.0681 136.024 18.8243C135.469 18.5805 134.974 18.2351 134.541 17.7881C134.108 17.3276 133.755 16.7791 133.484 16.1425C133.214 15.5059 133.078 14.7948 133.078 14.0092C133.078 13.2236 133.214 12.5125 133.484 11.8759C133.755 11.2258 134.108 10.6773 134.541 10.2303C134.974 9.76977 135.469 9.41761 136.024 9.17381C136.593 8.93001 137.175 8.80811 137.771 8.80811C138.462 8.80811 139.058 8.93678 139.559 9.19413C140.074 9.43793 140.487 9.77654 140.799 10.21H140.961V9.13318H143.501V18.3773C143.501 19.2171 143.372 19.9688 143.115 20.6325C142.857 21.3097 142.498 21.8786 142.038 22.3391C141.577 22.8132 141.022 23.1721 140.372 23.4159C139.735 23.6732 139.024 23.8019 138.239 23.8019ZM138.34 16.7926C138.665 16.7926 138.984 16.7317 139.295 16.6098C139.62 16.4879 139.905 16.3118 140.148 16.0815C140.392 15.8377 140.589 15.5465 140.738 15.2079C140.887 14.8557 140.961 14.4562 140.961 14.0092C140.961 13.5622 140.887 13.1627 140.738 12.8105C140.589 12.4584 140.392 12.1672 140.148 11.9369C139.905 11.6931 139.62 11.5102 139.295 11.3883C138.984 11.2664 138.665 11.2055 138.34 11.2055C138.015 11.2055 137.697 11.2664 137.385 11.3883C137.074 11.5102 136.796 11.6931 136.552 11.9369C136.309 12.1807 136.112 12.4787 135.963 12.8308C135.814 13.1694 135.74 13.5622 135.74 14.0092C135.74 14.4562 135.814 14.8557 135.963 15.2079C136.112 15.5465 136.309 15.8377 136.552 16.0815C136.796 16.3118 137.074 16.4879 137.385 16.6098C137.697 16.7317 138.015 16.7926 138.34 16.7926Z" fill="#0C1226"/>
<path d="M128.98 17.8892H128.817C128.573 18.309 128.194 18.668 127.679 18.966C127.165 19.2639 126.528 19.4129 125.77 19.4129C125.133 19.4129 124.523 19.2843 123.941 19.0269C123.372 18.756 122.864 18.3903 122.417 17.9298C121.984 17.4557 121.638 16.8936 121.381 16.2435C121.124 15.5934 120.995 14.8823 120.995 14.1102C120.995 13.3382 121.124 12.6271 121.381 11.977C121.638 11.3268 121.984 10.7715 122.417 10.311C122.864 9.83693 123.372 9.47123 123.941 9.21388C124.523 8.94299 125.133 8.80755 125.77 8.80755C126.528 8.80755 127.165 8.95654 127.679 9.25452C128.194 9.5525 128.573 9.91143 128.817 10.3313H128.98L128.817 8.90913V4.54102H131.479V19.0879H128.98V17.8892ZM126.318 16.9546C126.67 16.9546 127.002 16.8936 127.314 16.7717C127.639 16.6363 127.923 16.4467 128.167 16.2029C128.411 15.9591 128.607 15.6611 128.756 15.3089C128.905 14.9568 128.98 14.5572 128.98 14.1102C128.98 13.6633 128.905 13.2637 128.756 12.9115C128.607 12.5594 128.411 12.2614 128.167 12.0176C127.923 11.7738 127.639 11.591 127.314 11.469C127.002 11.3336 126.67 11.2659 126.318 11.2659C125.966 11.2659 125.627 11.3336 125.302 11.469C124.991 11.6045 124.713 11.7941 124.469 12.0379C124.225 12.2817 124.029 12.5797 123.88 12.9319C123.731 13.284 123.657 13.6768 123.657 14.1102C123.657 14.5437 123.731 14.9365 123.88 15.2886C124.029 15.6408 124.225 15.9388 124.469 16.1826C124.713 16.4264 124.991 16.616 125.302 16.7514C125.627 16.8869 125.966 16.9546 126.318 16.9546Z" fill="#0C1226"/>
<path d="M119.602 16.691C119.142 17.5037 118.519 18.1606 117.733 18.6618C116.961 19.1629 116.013 19.4135 114.889 19.4135C114.13 19.4135 113.426 19.2848 112.776 19.0275C112.139 18.7566 111.584 18.3841 111.11 17.91C110.636 17.436 110.263 16.8807 109.992 16.2441C109.735 15.5939 109.606 14.8828 109.606 14.1108C109.606 13.3929 109.735 12.7157 109.992 12.0791C110.25 11.429 110.609 10.8669 111.069 10.3928C111.53 9.90521 112.072 9.51919 112.695 9.23476C113.331 8.95032 114.029 8.80811 114.787 8.80811C115.586 8.80811 116.297 8.94355 116.921 9.21444C117.544 9.47179 118.065 9.83749 118.485 10.3116C118.905 10.7721 119.223 11.3206 119.44 11.9572C119.656 12.5938 119.765 13.2846 119.765 14.0295C119.765 14.1243 119.765 14.2056 119.765 14.2733C119.751 14.3546 119.745 14.4291 119.745 14.4968C119.731 14.5645 119.724 14.639 119.724 14.7203H112.227C112.281 15.1266 112.39 15.4788 112.552 15.7768C112.728 16.0612 112.938 16.305 113.182 16.5082C113.44 16.6978 113.717 16.84 114.015 16.9348C114.313 17.0161 114.618 17.0567 114.929 17.0567C115.539 17.0567 116.04 16.9213 116.433 16.6504C116.839 16.366 117.158 16.0138 117.388 15.5939L119.602 16.691ZM117.185 12.8308C117.171 12.6548 117.11 12.4584 117.002 12.2416C116.907 12.0249 116.758 11.8218 116.555 11.6321C116.365 11.4425 116.121 11.2868 115.823 11.1649C115.539 11.043 115.194 10.982 114.787 10.982C114.218 10.982 113.717 11.1445 113.284 11.4696C112.85 11.7947 112.546 12.2484 112.37 12.8308H117.185Z" fill="#0C1226"/>
<path d="M105.334 19.0879V4.54102H107.995V19.0879H105.334Z" fill="#0C1226"/>
<path d="M87.9287 9.1333H90.9153L92.5609 15.3706H92.7032L94.6739 9.1333H97.4167L99.4077 15.3706H99.5499L101.175 9.1333H104.121L100.931 19.0885H98.0668L96.0758 12.8106H95.9335L93.9425 19.0885H91.1185L87.9287 9.1333Z" fill="#0C1226"/>
<path d="M82.1916 8.80811C82.9636 8.80811 83.6679 8.94355 84.3045 9.21444C84.9546 9.47179 85.51 9.83749 85.9705 10.3116C86.4445 10.7721 86.8102 11.3274 87.0676 11.9775C87.3385 12.6277 87.4739 13.3388 87.4739 14.1108C87.4739 14.8828 87.3385 15.5939 87.0676 16.2441C86.8102 16.8942 86.4445 17.4563 85.9705 17.9304C85.51 18.3909 84.9546 18.7566 84.3045 19.0275C83.6679 19.2848 82.9636 19.4135 82.1916 19.4135C81.4195 19.4135 80.7084 19.2848 80.0583 19.0275C79.4217 18.7566 78.8664 18.3909 78.3923 17.9304C77.9318 17.4563 77.5661 16.8942 77.2952 16.2441C77.0379 15.5939 76.9092 14.8828 76.9092 14.1108C76.9092 13.3388 77.0379 12.6277 77.2952 11.9775C77.5661 11.3274 77.9318 10.7721 78.3923 10.3116C78.8664 9.83749 79.4217 9.47179 80.0583 9.21444C80.7084 8.94355 81.4195 8.80811 82.1916 8.80811ZM82.1916 16.9551C82.5302 16.9551 82.8552 16.8942 83.1668 16.7723C83.4918 16.6369 83.7763 16.4472 84.0201 16.2034C84.2639 15.9596 84.4535 15.6616 84.5889 15.3095C84.7379 14.9573 84.8124 14.5578 84.8124 14.1108C84.8124 13.6638 84.7379 13.2643 84.5889 12.9121C84.4535 12.5599 84.2639 12.262 84.0201 12.0182C83.7763 11.7744 83.4918 11.5915 83.1668 11.4696C82.8552 11.3342 82.5302 11.2664 82.1916 11.2664C81.8394 11.2664 81.5076 11.3342 81.196 11.4696C80.8845 11.5915 80.6068 11.7744 80.363 12.0182C80.1192 12.262 79.9228 12.5599 79.7739 12.9121C79.6384 13.2643 79.5707 13.6638 79.5707 14.1108C79.5707 14.5578 79.6384 14.9573 79.7739 15.3095C79.9228 15.6616 80.1192 15.9596 80.363 16.2034C80.6068 16.4472 80.8845 16.6369 81.196 16.7723C81.5076 16.8942 81.8394 16.9551 82.1916 16.9551Z" fill="#0C1226"/>
<path d="M68.3105 10.4335H68.473C68.7846 9.9323 69.2044 9.53951 69.7327 9.25508C70.2609 8.9571 70.8636 8.80811 71.5409 8.80811C72.1639 8.80811 72.7125 8.90969 73.1865 9.11286C73.6606 9.31603 74.0466 9.60723 74.3446 9.98648C74.6561 10.3522 74.8864 10.7992 75.0354 11.3274C75.1979 11.8421 75.2792 12.4177 75.2792 13.0543V19.0884H72.6177V13.3794C72.6177 12.6615 72.4551 12.1333 72.1301 11.7947C71.8185 11.4425 71.358 11.2664 70.7485 11.2664C70.3828 11.2664 70.0577 11.3477 69.7733 11.5102C69.5024 11.6592 69.2654 11.8692 69.0622 12.1401C68.8726 12.3974 68.7236 12.7089 68.6152 13.0746C68.5204 13.4268 68.473 13.806 68.473 14.2124V19.0884H65.8115V9.13318H68.3105V10.4335Z" fill="#0C1226"/>
<path d="M52.5459 4.54102H55.2887V10.7783H55.4512L60.7742 4.54102H64.0859V4.70355L58.8238 10.7173L64.6344 18.9253V19.0879H61.2821L56.9546 12.8912L55.2887 14.8213V19.0879H52.5459V4.54102Z" fill="#0C1226"/>
<path d="M111.621 37.8905C112.496 37.8905 113.211 37.5752 113.764 36.9446C114.343 36.314 114.633 35.4904 114.633 34.4737C114.633 33.4828 114.343 32.6656 113.764 32.0221C113.198 31.3787 112.484 31.0569 111.621 31.0569C110.772 31.0569 110.058 31.3787 109.479 32.0221C108.9 32.6656 108.61 33.4828 108.61 34.4737C108.61 35.4775 108.9 36.2947 109.479 36.9253C110.058 37.5688 110.772 37.8905 111.621 37.8905ZM111.563 43.6817C111.036 43.6817 110.54 43.6109 110.077 43.4694C109.614 43.3407 109.189 43.1541 108.803 42.9095C108.43 42.665 108.108 42.3755 107.838 42.0409C107.568 41.7063 107.362 41.3331 107.22 40.9212L108.9 40.2263C109.093 40.7797 109.427 41.2237 109.903 41.5583C110.379 41.8929 110.933 42.0602 111.563 42.0602C112.529 42.0602 113.281 41.7706 113.822 41.1915C114.363 40.6124 114.633 39.8145 114.633 38.7978V37.8905H114.556C114.221 38.3924 113.764 38.7914 113.185 39.0874C112.619 39.3705 112.001 39.5121 111.332 39.5121C110.096 39.5121 109.035 39.0295 108.147 38.0643C107.272 37.0733 106.834 35.8765 106.834 34.4737C106.834 33.071 107.272 31.8806 108.147 30.9025C109.035 29.9245 110.096 29.4354 111.332 29.4354C112.001 29.4354 112.619 29.5834 113.185 29.8794C113.764 30.1625 114.221 30.555 114.556 31.0569H114.633V29.7443H116.332V38.7978C116.332 40.3164 115.9 41.5068 115.038 42.369C114.163 43.2441 113.005 43.6817 111.563 43.6817Z" fill="#0C1226"/>
<path d="M96.0322 34.4737C96.0322 33.0195 96.4891 31.8162 97.4028 30.8639C98.3294 29.9116 99.4941 29.4354 100.897 29.4354C102.3 29.4354 103.458 29.9116 104.372 30.8639C105.298 31.8162 105.761 33.0195 105.761 34.4737C105.761 35.9408 105.298 37.1441 104.372 38.0836C103.458 39.0359 102.3 39.5121 100.897 39.5121C99.4941 39.5121 98.3294 39.0359 97.4028 38.0836C96.4891 37.1312 96.0322 35.928 96.0322 34.4737ZM97.8082 34.4737C97.8082 35.4904 98.1042 36.314 98.6962 36.9446C99.2882 37.5752 100.022 37.8905 100.897 37.8905C101.772 37.8905 102.505 37.5752 103.097 36.9446C103.689 36.314 103.985 35.4904 103.985 34.4737C103.985 33.4699 103.689 32.6527 103.097 32.0221C102.493 31.3787 101.759 31.0569 100.897 31.0569C100.035 31.0569 99.301 31.3787 98.6962 32.0221C98.1042 32.6527 97.8082 33.4699 97.8082 34.4737Z" fill="#0C1226"/>
<path d="M94.5035 25.3815V39.2031H92.7275V25.3815H94.5035Z" fill="#0C1226"/>
<path d="M84.1796 36.3076C84.1796 36.7709 84.3726 37.157 84.7587 37.4658C85.1576 37.7747 85.6209 37.9291 86.1486 37.9291C86.895 37.9291 87.5578 37.6524 88.1369 37.0991C88.7289 36.5457 89.0248 35.8958 89.0248 35.1494C88.4715 34.7118 87.6993 34.493 86.7084 34.493C85.9877 34.493 85.3828 34.6668 84.8938 35.0142C84.4177 35.3617 84.1796 35.7928 84.1796 36.3076ZM86.4767 29.4354C87.7894 29.4354 88.8254 29.7893 89.5847 30.4971C90.3439 31.1921 90.7236 32.1508 90.7236 33.3734V39.2032H89.0248V37.8905H88.9476C88.2141 38.9715 87.236 39.5121 86.0134 39.5121C84.971 39.5121 84.0959 39.2032 83.3881 38.5855C82.6932 37.9677 82.3457 37.1956 82.3457 36.269C82.3457 35.2909 82.7125 34.5123 83.446 33.9332C84.1924 33.3541 85.1834 33.0646 86.4188 33.0646C87.4741 33.0646 88.3428 33.2576 89.0248 33.6437V33.2383C89.0248 32.6206 88.7803 32.0994 88.2913 31.6747C87.8023 31.2371 87.2296 31.0183 86.5733 31.0183C85.5823 31.0183 84.7973 31.4366 84.2182 32.2731L82.6546 31.2886C83.5168 30.0531 84.7909 29.4354 86.4767 29.4354Z" fill="#0C1226"/>
<path d="M79.9945 39.3577C79.2224 39.3577 78.5789 39.1196 78.0641 38.6434C77.5622 38.1673 77.3048 37.5045 77.292 36.6551V31.3659H75.6318V29.7443H77.292V26.8488H79.0679V29.7443H81.3844V31.3659H79.0679V36.076C79.0679 36.7066 79.1902 37.1377 79.4347 37.3694C79.6792 37.5882 79.9559 37.6975 80.2648 37.6975C80.4063 37.6975 80.5415 37.6847 80.6702 37.6589C80.8117 37.6203 80.9404 37.5753 81.0562 37.5238L81.616 39.1067C81.1527 39.274 80.6122 39.3577 79.9945 39.3577Z" fill="#0C1226"/>
<path d="M67.8915 36.3076C67.8915 36.7709 68.0845 37.157 68.4706 37.4658C68.8696 37.7747 69.3328 37.9291 69.8605 37.9291C70.6069 37.9291 71.2697 37.6524 71.8488 37.0991C72.4408 36.5457 72.7368 35.8958 72.7368 35.1494C72.1834 34.7118 71.4112 34.493 70.4203 34.493C69.6996 34.493 69.0948 34.6668 68.6057 35.0142C68.1296 35.3617 67.8915 35.7928 67.8915 36.3076ZM70.1887 29.4354C71.5013 29.4354 72.5373 29.7893 73.2966 30.4971C74.0559 31.1921 74.4355 32.1508 74.4355 33.3734V39.2032H72.7368V37.8905H72.6595C71.926 38.9715 70.9479 39.5121 69.7254 39.5121C68.6829 39.5121 67.8078 39.2032 67.1 38.5855C66.4051 37.9677 66.0576 37.1956 66.0576 36.269C66.0576 35.2909 66.4244 34.5123 67.1579 33.9332C67.9044 33.3541 68.8953 33.0646 70.1307 33.0646C71.186 33.0646 72.0547 33.2576 72.7368 33.6437V33.2383C72.7368 32.6206 72.4922 32.0994 72.0032 31.6747C71.5142 31.2371 70.9415 31.0183 70.2852 31.0183C69.2942 31.0183 68.5092 31.4366 67.9301 32.2731L66.3665 31.2886C67.2287 30.0531 68.5028 29.4354 70.1887 29.4354Z" fill="#0C1226"/>
<path d="M59.7269 39.5119C57.6807 39.5119 55.9691 38.8234 54.5921 37.4464C53.228 36.0694 52.5459 34.3514 52.5459 32.2923C52.5459 30.2332 53.228 28.5216 54.5921 27.1575C55.9563 25.7676 57.6679 25.0726 59.7269 25.0726C61.8118 25.0726 63.5041 25.8255 64.8039 27.3312L63.5298 28.5666C62.5389 27.3698 61.2713 26.7714 59.7269 26.7714C58.1955 26.7714 56.915 27.2861 55.8855 28.3157C54.8688 29.3324 54.3605 30.6579 54.3605 32.2923C54.3605 33.9267 54.8688 35.2522 55.8855 36.2689C56.915 37.2984 58.1955 37.8132 59.7269 37.8132C61.3356 37.8132 62.7319 37.1376 63.9159 35.7863L65.2093 37.041C64.5529 37.8261 63.7486 38.4374 62.7963 38.8749C61.8439 39.2996 60.8208 39.5119 59.7269 39.5119Z" fill="#0C1226"/>
<defs>
<linearGradient id="paint0_linear_11215_123663" x1="8.41605" y1="0.79085" x2="22.1846" y2="30.1868" gradientUnits="userSpaceOnUse">
<stop stop-color="#0F97F6"/>
<stop offset="1" stop-color="#0333CE"/>
</linearGradient>
<linearGradient id="paint1_linear_11215_123663" x1="8.41605" y1="0.79085" x2="22.1846" y2="30.1868" gradientUnits="userSpaceOnUse">
<stop stop-color="#0F97F6"/>
<stop offset="1" stop-color="#0333CE"/>
</linearGradient>
<linearGradient id="paint2_linear_11215_123663" x1="8.41605" y1="0.79085" x2="22.1846" y2="30.1868" gradientUnits="userSpaceOnUse">
<stop stop-color="#0F97F6"/>
<stop offset="1" stop-color="#0333CE"/>
</linearGradient>
<linearGradient id="paint3_linear_11215_123663" x1="8.41605" y1="0.79085" x2="22.1846" y2="30.1868" gradientUnits="userSpaceOnUse">
<stop stop-color="#0F97F6"/>
<stop offset="1" stop-color="#0333CE"/>
</linearGradient>
<linearGradient id="paint4_linear_11215_123663" x1="8.41605" y1="0.79085" x2="22.1846" y2="30.1868" gradientUnits="userSpaceOnUse">
<stop stop-color="#0F97F6"/>
<stop offset="1" stop-color="#0333CE"/>
</linearGradient>
</defs>
</svg>
